<?xml version="1.0" standalone="no"?>
<!DOCTYPE svg PUBLIC "-//W3C//DTD SVG 20010904//EN"
 "http://www.w3.org/TR/2001/REC-SVG-20010904/DTD/svg10.dtd">
<svg version="1.0" xmlns="http://www.w3.org/2000/svg"
 width="335.000000pt" height="222.000000pt" viewBox="0 0 335.000000 222.000000"
 preserveAspectRatio="xMidYMid meet">

<g transform="translate(0.000000,222.000000) scale(0.100000,-0.100000)"
fill="#000000" stroke="none">
<path d="M2507 2153 c-4 -3 -7 -228 -7 -500 l0 -493 88 0 87 0 -3 240 c-3 231
-2 241 19 269 77 104 218 85 248 -34 6 -25 11 -136 11 -259 l0 -216 88 0 87 0
-3 237 c-1 131 -7 263 -12 293 -14 75 -55 138 -114 175 -44 27 -58 30 -131 30
-69 0 -89 -4 -134 -27 -29 -16 -55 -28 -57 -28 -2 0 -4 72 -4 160 l0 160 -78
0 c-43 0 -82 -3 -85 -7z"/>
<path d="M33 2093 c-10 -4 -13 -107 -13 -468 l0 -464 48 -7 c85 -14 272 -9
339 9 224 59 342 222 343 470 0 238 -124 398 -352 452 -60 14 -335 21 -365 8z
m363 -184 c60 -23 105 -67 136 -134 20 -43 23 -66 23 -161 0 -103 -2 -114 -30
-170 -50 -98 -160 -153 -276 -138 l-49 7 0 314 0 315 73 -7 c39 -4 95 -16 123
-26z"/>
<path d="M1102 1885 c-29 -7 -71 -20 -93 -30 -34 -16 -39 -22 -35 -44 3 -14 8
-47 12 -73 3 -27 7 -48 9 -48 1 0 29 12 61 27 44 20 80 28 139 31 101 5 144
-11 168 -61 30 -62 27 -63 -80 -70 -228 -13 -353 -99 -353 -241 0 -98 39 -154
135 -197 74 -34 229 -34 303 0 l52 24 21 -27 c11 -14 28 -26 38 -26 9 0 41 25
71 55 l54 55 -25 26 c-23 25 -24 30 -29 227 -5 200 -5 203 -34 254 -51 92
-139 134 -280 132 -45 0 -105 -6 -134 -14z m262 -391 c13 -5 16 -22 16 -85 0
-68 -3 -80 -20 -89 -59 -32 -193 -28 -231 6 -21 19 -25 73 -9 105 6 10 25 26
42 35 46 24 169 41 202 28z"/>
<path d="M1927 1890 c-84 -21 -154 -76 -179 -139 -15 -39 -12 -134 5 -167 38
-73 111 -113 251 -139 115 -21 146 -37 146 -74 0 -17 -10 -37 -26 -52 -23 -22
-34 -24 -107 -22 -95 1 -191 28 -242 67 l-33 26 -6 -28 c-3 -15 -8 -53 -12
-84 l-6 -57 42 -21 c93 -47 264 -63 374 -35 121 32 186 107 186 217 0 121 -68
185 -233 218 -156 32 -187 50 -173 106 19 76 217 70 303 -9 13 -11 25 -19 27
-16 7 9 46 120 46 134 0 7 -30 29 -67 47 -59 29 -77 33 -162 35 -53 1 -113 -2
-134 -7z"/>
<path d="M1212 1041 c-28 -36 -52 -71 -52 -78 0 -10 131 -113 144 -113 2 0 28
32 57 71 l53 71 -35 29 c-19 16 -52 42 -74 58 l-40 29 -53 -67z"/>
<path d="M270 944 c0 -3 58 -170 129 -372 71 -202 142 -409 157 -460 l28 -92
88 0 c57 0 87 4 83 10 -10 16 29 145 162 530 69 201 128 371 131 378 3 9 -20
12 -94 12 l-99 0 -68 -233 c-37 -127 -77 -267 -90 -309 -12 -43 -24 -78 -27
-78 -3 0 -52 140 -108 310 l-104 310 -94 0 c-52 0 -94 -3 -94 -6z"/>
<path d="M1769 747 c-107 -30 -200 -114 -241 -216 -17 -44 -22 -77 -23 -151 0
-83 3 -102 27 -152 73 -156 249 -238 453 -210 48 6 104 19 124 29 l36 18 3 79
c3 72 1 78 -15 71 -76 -32 -106 -38 -193 -39 -84 -1 -101 2 -150 26 -55 27
-91 63 -104 104 -6 21 -4 21 231 27 131 4 251 10 267 13 l28 7 -4 91 c-4 106
-27 162 -89 225 -62 62 -119 85 -219 88 -48 2 -105 -3 -131 -10z m191 -155
c29 -22 70 -88 70 -114 0 -17 -15 -18 -175 -18 -96 0 -175 2 -175 5 0 41 73
124 125 144 41 15 124 5 155 -17z"/>
<path d="M1160 385 l0 -365 85 0 85 0 0 365 0 365 -85 0 -85 0 0 -365z"/>
<path d="M2275 738 c2 -7 38 -128 80 -268 42 -140 90 -299 106 -353 l30 -97
88 0 88 0 47 177 c26 98 55 205 65 238 l18 60 25 -80 c13 -44 44 -151 69 -237
l44 -158 90 0 90 0 106 363 106 362 -80 3 c-43 2 -81 2 -82 0 -2 -2 -32 -121
-66 -265 -35 -144 -67 -259 -70 -255 -3 4 -37 123 -74 265 l-69 258 -79 -3
-80 -3 -67 -253 c-37 -139 -70 -255 -72 -257 -2 -2 -33 113 -68 255 l-64 260
-93 0 c-69 0 -91 -3 -88 -12z"/>
</g>
</svg>
